
<svg width="800" height="600" viewBox="0 0 800 600" fill="none" xmlns="http://www.w3.org/2000/svg">
  <g opacity="0.3">
    <circle cx="400" cy="300" r="4" fill="white"/>
    <circle cx="450" cy="250" r="3" fill="white"/>
    <circle cx="500" cy="350" r="2" fill="white"/>
    <circle cx="350" cy="400" r="3" fill="white"/>
    <circle cx="300" cy="200" r="2" fill="white"/>
    <circle cx="250" cy="300" r="4" fill="white"/>
    <circle cx="200" cy="350" r="2" fill="white"/>
    <circle cx="550" cy="200" r="3" fill="white"/>
    <circle cx="600" cy="300" r="2" fill="white"/>
    <circle cx="650" cy="400" r="4" fill="white"/>
    <circle cx="150" cy="250" r="3" fill="white"/>
    <circle cx="700" cy="350" r="2" fill="white"/>
  </g>
  <g opacity="0.2">
    <path d="M200 200 L250 250" stroke="white" stroke-width="0.5"/>
    <path d="M400 300 L450 250" stroke="white" stroke-width="0.5"/>
    <path d="M400 300 L350 400" stroke="white" stroke-width="0.5"/>
    <path d="M400 300 L500 350" stroke="white" stroke-width="0.5"/>
    <path d="M250 300 L300 200" stroke="white" stroke-width="0.5"/>
    <path d="M250 300 L200 350" stroke="white" stroke-width="0.5"/>
    <path d="M550 200 L600 300" stroke="white" stroke-width="0.5"/>
    <path d="M600 300 L650 400" stroke="white" stroke-width="0.5"/>
    <path d="M150 250 L200 350" stroke="white" stroke-width="0.5"/>
  </g>
</svg>
